<svg width="512" height="512" viewBox="0 0 512 512" fill="none" xmlns="http://www.w3.org/2000/svg">
<path d="M256 170.667V85.3334H170.667M42.6667 298.667H85.3334M426.667 298.667H469.333M320 277.333V320M192 277.333V320M128 170.667H384C407.564 170.667 426.667 189.769 426.667 213.333V384C426.667 407.564 407.564 426.667 384 426.667H128C104.436 426.667 85.3334 407.564 85.3334 384V213.333C85.3334 189.769 104.436 170.667 128 170.667Z" stroke="black" stroke-width="40" stroke-linecap="round" stroke-linejoin="round"/>
<path d="M256 170.667V85.3334H170.667M42.6667 298.667H85.3334M426.667 298.667H469.333M320 277.333V320M192 277.333V320M128 170.667H384C407.564 170.667 426.667 189.769 426.667 213.333V384C426.667 407.564 407.564 426.667 384 426.667H128C104.436 426.667 85.3334 407.564 85.3334 384V213.333C85.3334 189.769 104.436 170.667 128 170.667Z" stroke="black" stroke-width="40" stroke-linecap="round" stroke-linejoin="round"/>
</svg>
